<svg xmlns="http://www.w3.org/2000/svg" xmlns:xlink="http://www.w3.org/1999/xlink" width="100.0" height="100.0" viewBox="14.359275336844018 49.629573454072904 0.0022004057967475177 0.0009449960209408914" preserveAspectRatio="xMinYMin meet"><g transform="matrix(1,0,0,-1,0,99.26009190416676)"><path fill-rule="evenodd" fill="#66cc99" stroke="#555555" stroke-width="4.400811593495036e-05" opacity="0.6" d="M 14.359767563952202,49.63037927920924 L 14.359777203602778,49.630376421954196 L 14.360001719153155,49.63030909328135 L 14.360032668635743,49.63030012447168 L 14.360052997599661,49.630294496510984 L 14.360073112227415,49.630289141492504 L 14.360092989705747,49.63028406559566 L 14.360112637565946,49.630279266795704 L 14.3601320558088,49.63027474509281 L 14.360160737026183,49.63026848538207 L 14.360188932636326,49.63026284264306 L 14.36020743241176,49.630259429329094 L 14.360225702570066,49.63025629311422 L 14.360252664950076,49.630252110156434 L 14.360279135166005,49.63024854712072 L 14.36029325077284,49.630246885791934 L 14.36031891661362,49.63023836318626 L 14.36034002626705,49.63023180017886 L 14.360360675174247,49.63022578941549 L 14.360380875448342,49.630220327466866 L 14.3604006151954,49.63021541766192 L 14.360419898304027,49.63021105892993 L 14.360438724774934,49.63020725127197 L 14.3604479624985,49.63020555485326 L 14.360466101909955,49.630202574030676 L 14.36047500762202,49.63020128923936 L 14.360492464184281,49.630199134803746 L 14.360509464107917,49.63019753144718 L 14.360526007392728,49.6301964791709 L 14.36053410511838,49.63019615977127 L 14.360549962082747,49.6301959340352 L 14.360557723892187,49.63019602788689 L 14.36057289726394,49.63019662885238 L 14.360587613995754,49.63019778090304 L 14.36060187408715,49.630199484039984 L 14.360670439426586,49.63020967434395 L 14.360684359414936,49.63021124765598 L 14.360691300742468,49.630211754213015 L 14.360705145925305,49.63021220712912 L 14.360712049919245,49.630212153492025 L 14.360725820572737,49.63021148601995 L 14.360739539715034,49.630210071819654 L 14.360753212397853,49.63020791026353 L 14.360766833710654,49.63020500200566 L 14.360780405106013,49.630201346857966 L 14.360793926855427,49.63019694474561 L 14.360807398787285,49.63019179571606 L 14.360863300260453,49.63016900457525 L 14.360870042057831,49.63016630599942 L 14.360884095574715,49.63016111067823 L 14.36089891680058,49.63015618163323 L 14.360914493152602,49.63015152286719 L 14.360922572496396,49.63014929246122 L 14.360939299465178,49.630145033557824 L 14.361261235622038,49.63006951413777 L 14.361394246129775,49.63001666411574 L 14.361040853148731,49.629902795669864 L 14.36097982889193,49.62989866822355 L 14.36096484718116,49.629901560503164 L 14.360925194159897,49.62988337553673 L 14.360843094766205,49.62989249591177 L 14.360786176121048,49.62987262763921 L 14.360793518606561,49.62982625046386 L 14.360654340998693,49.62971541966806 L 14.36052224254309,49.62966930852034 L 14.360303524086946,49.6296549505839 L 14.360132971581217,49.629745149485146 L 14.359994057761398,49.62991208770975 L 14.359982009631167,49.62998814958713 L 14.359882466857485,49.629999206854514 L 14.359796084620145,49.63003446950695 L 14.359356833355008,49.63043695358285 L 14.359767563952202,49.63037927920924 z" /></g></svg>